# xmcd
#
# Track frame offsets: 
#        150
#        25800
#        51600
#        60940
#        79050
#        97402
#        115092
#        127650
#        147845
#        164090
#        187275
#        204220
#        222375
#
# Disc length: 3087 seconds
#
# Revision: 4
# Processed by: cddbd v1.5.2PL0 Copyright (c) Steve Scherf et al.
# Submitted via: ExactAudioCopyFreeDBPlugin 1.0
#
DISCID=c00c0d0d
DTITLE=Mozart, Wolfgang Amadeus - Serenades and Divertimentos 4 (Camerat
DTITLE=a Salzburg, Vegh)
DYEAR=1988
DGENRE=Classical
TTITLE0=Eine Kleine Nachtmusik K 525 - I. Allegro
TTITLE1=Eine Kleine Nachtmusik K 525 - II. Romance (Andante)
TTITLE2=Eine Kleine Nachtmusik K 525 - III. Menuetto (Allegretto)
TTITLE3=Eine Kleine Nachtmusik K 525 - IV. Rondo (Allegro)
TTITLE4=Divertimenti in D K 136 - I. Allegro 1
TTITLE5=Divertimenti in D K 136 - II. Andante 1
TTITLE6=Divertimenti in D K 136 - III. Presto 1
TTITLE7=Serenata notturna in D K 239 - I. Marcia. Maestoso
TTITLE8=Serenata notturna in D K 239 - II. Menuetto
TTITLE9=Serenata notturna in D K 239 - III. Rondeau. Allegretto
TTITLE10=Divertimento in F K 138 - I. Allegro 2
TTITLE11=Divertimento in F K 138 - II. Andante 2
TTITLE12=Divertimento in F K 138 - III. Presto 2
EXTD=
EXTT0=Eine kleine Nachtmusik, K525\nVienna Mozart Ensemble, Herbert Kr
EXTT0=aus
EXTT1=Eine kleine Nachtmusik, K525\nVienna Mozart Ensemble, Herbert Kr
EXTT1=aus
EXTT2=Eine kleine Nachtmusik, K525\nVienna Mozart Ensemble, Herbert Kr
EXTT2=aus
EXTT3=Eine kleine Nachtmusik, K525\nVienna Mozart Ensemble, Herbert Kr
EXTT3=aus
EXTT4=Divertimento in D major, K 136\nVienna Mozart Ensemble, Herbert 
EXTT4=Kraus
EXTT5=Divertimento in D major, K 136\nVienna Mozart Ensemble, Herbert 
EXTT5=Kraus
EXTT6=Divertimento in D major, K 136\nVienna Mozart Ensemble, Herbert 
EXTT6=Kraus
EXTT7=Serenata notturna in D major, K 239\nVienna Mozart Ensemble, Her
EXTT7=bert Kraus
EXTT8=Serenata notturna in D major, K 239\nVienna Mozart Ensemble, Her
EXTT8=bert Kraus
EXTT9=Serenata notturna in D major, K 239\nVienna Mozart Ensemble, Her
EXTT9=bert Kraus
EXTT10=Divertimento in F major, K 138\nCamerata Salzburg, Sandor Vegh
EXTT11=Divertimento in F major, K 138\nCamerata Salzburg, Sandor Vegh
EXTT12=Divertimento in F major, K 138\nCamerata Salzburg, Sandor Vegh
PLAYORDER=
